<svg width="14" height="11" viewBox="0 0 14 11" fill="none" xmlns="http://www.w3.org/2000/svg">
<path d="M13.1812 5.54167L8.27803 0.638548C8.18131 0.541835 8.0665 0.465117 7.94014 0.412776C7.81378 0.360435 7.67834 0.333496 7.54157 0.333496C7.4048 0.333496 7.26936 0.360435 7.143 0.412776C7.01664 0.465117 6.90182 0.541835 6.80511 0.638548C6.7084 0.735261 6.63168 0.850076 6.57934 0.976437C6.527 1.1028 6.50006 1.23823 6.50006 1.37501C6.50006 1.51178 6.527 1.64721 6.57934 1.77357C6.63168 1.89994 6.7084 2.01475 6.80511 2.11146L9.19365 4.50001L1.29157 4.50001C1.0153 4.50001 0.75035 4.60975 0.554999 4.8051C0.35965 5.00045 0.249904 5.26541 0.249904 5.54167C0.249904 5.81794 0.35965 6.08289 0.554999 6.27824C0.75035 6.47359 1.0153 6.58334 1.29157 6.58334L9.19365 6.58334L6.80511 8.97188C6.70804 9.06839 6.63101 9.18315 6.57845 9.30953C6.52588 9.43592 6.49882 9.57146 6.49882 9.70834C6.49882 9.84522 6.52588 9.98075 6.57845 10.1071C6.63101 10.2335 6.70804 10.3483 6.80511 10.4448C6.90176 10.5416 7.01656 10.6184 7.14293 10.6708C7.2693 10.7232 7.40476 10.7502 7.54157 10.7502C7.67837 10.7502 7.81384 10.7232 7.94021 10.6708C8.06658 10.6184 8.18137 10.5416 8.27803 10.4448L13.1812 5.54167Z" fill="#4A4A4A"/>
</svg>
