<svg width="80" height="80" viewBox="0 0 80 80" fill="none" xmlns="http://www.w3.org/2000/svg">
<g id="carbon:drop-photo">
<path id="Vector" d="M47.5 65C45.5222 65 43.5888 64.4135 41.9443 63.3147C40.2998 62.2159 39.0181 60.6541 38.2612 58.8268C37.5043 56.9996 37.3063 54.9889 37.6922 53.0491C38.078 51.1093 39.0304 49.3275 40.4289 47.9289C41.8275 46.5304 43.6093 45.578 45.5491 45.1922C47.4889 44.8063 49.4996 45.0043 51.3268 45.7612C53.1541 46.5181 54.7159 47.7998 55.8147 49.4443C56.9135 51.0888 57.5 53.0222 57.5 55C57.4967 57.6512 56.4421 60.1928 54.5674 62.0674C52.6928 63.9421 50.1512 64.9967 47.5 65ZM47.5 50C46.5111 50 45.5444 50.2933 44.7222 50.8427C43.8999 51.3921 43.259 52.173 42.8806 53.0866C42.5022 54.0002 42.4032 55.0056 42.5961 55.9755C42.789 56.9454 43.2652 57.8363 43.9645 58.5355C44.6637 59.2348 45.5546 59.711 46.5246 59.9039C47.4945 60.0969 48.4998 59.9978 49.4134 59.6194C50.3271 59.241 51.1079 58.6001 51.6574 57.7779C52.2068 56.9556 52.5 55.9889 52.5 55C52.4987 53.6743 51.9715 52.4033 51.0341 51.4659C50.0967 50.5285 48.8257 50.0013 47.5 50Z" fill="black"/>
<path id="Vector_2" d="M67.5 72.5H27.5C26.1739 72.5 24.9021 71.9732 23.9645 71.0355C23.0268 70.0979 22.5 68.8261 22.5 67.5V45C22.5 43.6739 23.0268 42.4021 23.9645 41.4645C24.9021 40.5268 26.1739 40 27.5 40H35.7L37.0575 35.92C37.3892 34.924 38.0261 34.0576 38.8777 33.4438C39.7294 32.8299 40.7527 32.4997 41.8025 32.5H53.1975C54.2473 32.4997 55.2706 32.8299 56.1223 33.4438C56.9739 34.0576 57.6108 34.924 57.9425 35.92L59.3 40H67.5C68.8261 40 70.0979 40.5268 71.0355 41.4645C71.9732 42.4021 72.5 43.6739 72.5 45V67.5C72.5 68.8261 71.9732 70.0979 71.0355 71.0355C70.0979 71.9732 68.8261 72.5 67.5 72.5ZM27.5 67.5H67.5V45H55.7L53.2 37.5H41.8L39.3 45H27.5V67.5ZM67.5 27.5H72.5V32.5H67.5V27.5ZM67.5 17.5H72.5V22.5H67.5V17.5ZM67.5 7.5H72.5V12.5H67.5V7.5ZM57.5 7.5H62.5V12.5H57.5V7.5ZM47.5 7.5H52.5V12.5H47.5V7.5ZM37.5 7.5H42.5V12.5H37.5V7.5ZM27.5 7.5H32.5V12.5H27.5V7.5ZM17.5 7.5H22.5V12.5H17.5V7.5ZM7.5 7.5H12.5V12.5H7.5V7.5ZM7.5 17.5H12.5V22.5H7.5V17.5ZM7.5 27.5H12.5V32.5H7.5V27.5ZM7.5 37.5H12.5V42.5H7.5V37.5ZM7.5 47.5H12.5V52.5H7.5V47.5ZM7.5 57.5H12.5V62.5H7.5V57.5ZM7.5 67.5H12.5V72.5H7.5V67.5Z" fill="black"/>
</g>
</svg>
