<svg width="19" height="16" viewBox="0 0 19 16" fill="none" xmlns="http://www.w3.org/2000/svg">
<path d="M0.146484 8.04156L7.01086 14.9059C7.14626 15.0413 7.307 15.1487 7.4839 15.222C7.66081 15.2953 7.85042 15.333 8.0419 15.333C8.23338 15.333 8.42299 15.2953 8.5999 15.222C8.7768 15.1487 8.93754 15.0413 9.07294 14.9059C9.20834 14.7705 9.31575 14.6098 9.38902 14.4329C9.4623 14.256 9.50001 14.0664 9.50001 13.8749C9.50001 13.6834 9.4623 13.4938 9.38902 13.3169C9.31575 13.14 9.20834 12.9793 9.07294 12.8439L5.72898 9.49989H16.7919C17.1787 9.49989 17.5496 9.34625 17.8231 9.07276C18.0966 8.79927 18.2502 8.42833 18.2502 8.04156C18.2502 7.65479 18.0966 7.28385 17.8231 7.01036C17.5496 6.73687 17.1787 6.58323 16.7919 6.58323L5.72898 6.58323L9.07294 3.23927C9.20884 3.10415 9.31668 2.9435 9.39027 2.76655C9.46386 2.58961 9.50174 2.39986 9.50174 2.20823C9.50174 2.01659 9.46386 1.82685 9.39027 1.6499C9.31668 1.47296 9.20884 1.3123 9.07294 1.17718C8.93763 1.04164 8.77691 0.934106 8.59999 0.860736C8.42308 0.787366 8.23343 0.749601 8.0419 0.749601C7.85037 0.749601 7.66072 0.787366 7.48381 0.860736C7.30689 0.934106 7.14617 1.04164 7.01086 1.17718L0.146484 8.04156Z" fill="#4A4A4A"/>
</svg>
