<svg width="20" height="15" viewBox="0 0 20 15" fill="none" xmlns="http://www.w3.org/2000/svg">
<path d="M18.2353 15H1.76471C0.764706 15 0 14.25 0 13.2692V1.73077C0 0.75 0.764706 0 1.76471 0H18.2353C19.2353 0 20 0.75 20 1.73077V13.2692C20 14.25 19.2353 15 18.2353 15ZM1.76471 1.15385C1.41176 1.15385 1.17647 1.38462 1.17647 1.73077V13.2692C1.17647 13.6154 1.41176 13.8462 1.76471 13.8462H18.2353C18.5882 13.8462 18.8235 13.6154 18.8235 13.2692V1.73077C18.8235 1.38462 18.5882 1.15385 18.2353 1.15385H1.76471Z" fill="black"/>
<path opacity="0.9" d="M13.998 7.06445L19.8627 12.8164L19.0303 13.6321L13.1656 7.88022L13.998 7.06445ZM6.04619 7.08926L6.87795 7.90503L1.05442 13.6166L0.222656 12.8031L6.04619 7.08926Z" fill="black"/>
<path d="M9.99931 10.3262C9.11696 10.3262 8.17578 9.98002 7.52872 9.28771L0.175781 2.13386L0.99931 1.32617L8.35225 8.53771C9.29343 9.46079 10.764 9.46079 11.7052 8.53771L19.0581 1.32617L19.8817 2.13386L12.4699 9.3454C11.8228 9.98002 10.8817 10.3262 9.99931 10.3262Z" fill="black"/>
</svg>
