<svg width="19" height="17" viewBox="0 0 19 17" fill="none" xmlns="http://www.w3.org/2000/svg">
<path id="Vector" d="M13.7411 0.5C11.9895 0.5 10.4559 1.24017 9.5 2.4913C8.54406 1.24017 7.01049 0.5 5.25893 0.5C3.86466 0.501544 2.52794 1.04651 1.54204 2.01534C0.55614 2.98418 0.00157152 4.29775 0 5.66789C0 11.5026 8.80362 16.2254 9.17853 16.4204C9.27734 16.4727 9.38779 16.5 9.5 16.5C9.6122 16.5 9.72266 16.4727 9.82147 16.4204C10.1964 16.2254 19 11.5026 19 5.66789C18.9984 4.29775 18.4439 2.98418 17.458 2.01534C16.4721 1.04651 15.1353 0.501544 13.7411 0.5ZM9.5 15.0701C7.95116 14.1832 1.35714 10.1431 1.35714 5.66789C1.35849 4.65139 1.77 3.6769 2.50144 2.95813C3.23287 2.23936 4.22452 1.83497 5.25893 1.83365C6.90871 1.83365 8.29384 2.69718 8.87232 4.08418C8.92344 4.20648 9.01041 4.31109 9.12218 4.38471C9.23394 4.45832 9.36545 4.49763 9.5 4.49763C9.63455 4.49763 9.76606 4.45832 9.87782 4.38471C9.98958 4.31109 10.0766 4.20648 10.1277 4.08418C10.7062 2.69468 12.0913 1.83365 13.7411 1.83365C14.7755 1.83497 15.7671 2.23936 16.4986 2.95813C17.23 3.6769 17.6415 4.65139 17.6429 5.66789C17.6429 10.1364 11.0471 14.1824 9.5 15.0701Z" fill="#111111"/>
</svg>
