<svg width="15" height="15" viewBox="0 0 15 15" fill="none" xmlns="http://www.w3.org/2000/svg">
<path d="M1.66667 15C1.20833 15 0.815835 14.8367 0.489168 14.51C0.162501 14.1833 -0.000554141 13.7911 1.41483e-06 13.3333V1.66667C1.41483e-06 1.20833 0.163335 0.815835 0.490001 0.489168C0.816668 0.162501 1.20889 -0.000554141 1.66667 1.41483e-06H9.16667V1.66667H1.66667V13.3333H13.3333V5.83333H15V13.3333C15 13.7917 14.8367 14.1842 14.51 14.5108C14.1833 14.8375 13.7911 15.0006 13.3333 15H1.66667ZM11.6667 5V3.33333H10V1.66667H11.6667V1.41483e-06H13.3333V1.66667H15V3.33333H13.3333V5H11.6667ZM2.5 11.6667H12.5L9.375 7.5L6.875 10.8333L5 8.33333L2.5 11.6667Z" fill="black"/>
</svg>
