<svg width="55" height="75" viewBox="0 0 55 75" fill="none" xmlns="http://www.w3.org/2000/svg">
<circle cx="27.5" cy="37.5" r="27.5" fill="#CDD8DD"/>
<circle cx="27.4999" cy="35.536" r="10.8036" fill="#657785"/>
<circle cx="27.4999" cy="35.536" r="10.8036" fill="#657785"/>
<circle cx="27.4999" cy="35.536" r="10.8036" fill="#657785"/>
<path fill-rule="evenodd" clip-rule="evenodd" d="M9.85709 58.5954C13.5447 52.4315 20.2859 48.3047 27.9909 48.3047C35.4634 48.3047 42.0294 52.1862 45.7826 58.0429C40.9234 62.3705 34.5188 65 27.5 65C20.7851 65 14.6322 62.5933 9.85709 58.5954Z" fill="#657785"/>
<path fill-rule="evenodd" clip-rule="evenodd" d="M9.85709 58.5954C13.5447 52.4315 20.2859 48.3047 27.9909 48.3047C35.4634 48.3047 42.0294 52.1862 45.7826 58.0429C40.9234 62.3705 34.5188 65 27.5 65C20.7851 65 14.6322 62.5933 9.85709 58.5954Z" fill="#657785"/>
<path fill-rule="evenodd" clip-rule="evenodd" d="M9.85709 58.5954C13.5447 52.4315 20.2859 48.3047 27.9909 48.3047C35.4634 48.3047 42.0294 52.1862 45.7826 58.0429C40.9234 62.3705 34.5188 65 27.5 65C20.7851 65 14.6322 62.5933 9.85709 58.5954Z" fill="#657785"/>
</svg>
