<svg width="4" height="15" viewBox="0 0 4 15" fill="none" xmlns="http://www.w3.org/2000/svg">
<path d="M1.75 3.76916C2.7165 3.76916 3.5 2.99426 3.5 2.03839C3.5 1.08251 2.7165 0.307617 1.75 0.307617C0.783502 0.307617 0 1.08251 0 2.03839C0 2.99426 0.783502 3.76916 1.75 3.76916Z" fill="black"/>
<path d="M1.75 9.23058C2.7165 9.23058 3.5 8.45569 3.5 7.49981C3.5 6.54393 2.7165 5.76904 1.75 5.76904C0.783502 5.76904 0 6.54393 0 7.49981C0 8.45569 0.783502 9.23058 1.75 9.23058Z" fill="black"/>
<path d="M1.75 14.6923C2.7165 14.6923 3.5 13.9174 3.5 12.9615C3.5 12.0056 2.7165 11.2307 1.75 11.2307C0.783502 11.2307 0 12.0056 0 12.9615C0 13.9174 0.783502 14.6923 1.75 14.6923Z" fill="black"/>
</svg>
