<svg width="38" height="38" viewBox="0 0 38 38" fill="none" xmlns="http://www.w3.org/2000/svg">
<g id="Group 1719">
<circle id="Ellipse 12" cx="19" cy="19" r="19" fill="#CDD8DD"/>
<g id="Ellipse 11">
<circle cx="18.9994" cy="17.643" r="7.46429" fill="#657785"/>
<circle cx="18.9994" cy="17.643" r="7.46429" fill="#657785"/>
<circle cx="18.9994" cy="17.643" r="7.46429" fill="#657785"/>
</g>
<g id="Intersect">
<path fill-rule="evenodd" clip-rule="evenodd" d="M6.81055 33.5748C9.35836 29.3162 14.0158 26.4651 19.3393 26.4651C24.5021 26.4651 29.0386 29.1469 31.6317 33.1934C28.2745 36.1833 23.8496 37.9999 19.0003 37.9999C14.3608 37.9999 10.1098 36.3371 6.81055 33.5748Z" fill="#657785"/>
<path fill-rule="evenodd" clip-rule="evenodd" d="M6.81055 33.5748C9.35836 29.3162 14.0158 26.4651 19.3393 26.4651C24.5021 26.4651 29.0386 29.1469 31.6317 33.1934C28.2745 36.1833 23.8496 37.9999 19.0003 37.9999C14.3608 37.9999 10.1098 36.3371 6.81055 33.5748Z" fill="#657785"/>
<path fill-rule="evenodd" clip-rule="evenodd" d="M6.81055 33.5748C9.35836 29.3162 14.0158 26.4651 19.3393 26.4651C24.5021 26.4651 29.0386 29.1469 31.6317 33.1934C28.2745 36.1833 23.8496 37.9999 19.0003 37.9999C14.3608 37.9999 10.1098 36.3371 6.81055 33.5748Z" fill="#657785"/>
</g>
</g>
</svg>
