<svg width="22" height="22" viewBox="0 0 22 22" fill="none" xmlns="http://www.w3.org/2000/svg">
<g id="Group">
<path id="Vector" d="M19.3333 1H2.66667C2.22464 1 1.80072 1.17559 1.48816 1.48816C1.17559 1.80072 1 2.22464 1 2.66667V19.3333C1 19.7754 1.17559 20.1993 1.48816 20.5118C1.80072 20.8244 2.22464 21 2.66667 21H19.3333C19.7754 21 20.1993 20.8244 20.5118 20.5118C20.8244 20.1993 21 19.7754 21 19.3333V2.66667C21 2.22464 20.8244 1.80072 20.5118 1.48816C20.1993 1.17559 19.7754 1 19.3333 1Z" stroke="black" stroke-width="2" stroke-linecap="round" stroke-linejoin="round"/>
<path id="Vector_2" d="M21 17.666L14.8889 12.1104L9.33333 17.1104L5.44444 13.7771L1 17.1104M7.66667 10.4437C8.40338 10.4437 9.10992 10.1511 9.63085 9.63015C10.1518 9.10921 10.4444 8.40267 10.4444 7.66596C10.4444 6.92925 10.1518 6.22271 9.63085 5.70178C9.10992 5.18084 8.40338 4.88818 7.66667 4.88818C6.92995 4.88818 6.22342 5.18084 5.70248 5.70178C5.18155 6.22271 4.88889 6.92925 4.88889 7.66596C4.88889 8.40267 5.18155 9.10921 5.70248 9.63015C6.22342 10.1511 6.92995 10.4437 7.66667 10.4437Z" stroke="black" stroke-width="2" stroke-linecap="round" stroke-linejoin="round"/>
</g>
</svg>
